# xmcd
#
# Track frame offsets: 
#        180
#        13575
#        27195
#        44947
#        61857
#        76297
#        91209
#        104389
#        115319
#
# Disc length: 1785 seconds
#
# Revision: 0
# Processed by: cddbd v1.5.2PL0 Copyright (c) Steve Scherf et al.
# Submitted via: ExactAudioCopy v0.95b4
#
DISCID=6d06f709
DTITLE=J.P. Wasson - This Here's My Band
DYEAR=1997
DGENRE=Country
TTITLE0=Rock and Roll Dream
TTITLE1=Farmer's Wife
TTITLE2=She's Moving On
TTITLE3=First Thing Tomorrow
TTITLE4=Only You Only Me
TTITLE5=Change
TTITLE6=Smokey Hot Bingo
TTITLE7=Has Been Never Was
TTITLE8=Party Song
EXTD=
EXTT0=
EXTT1=
EXTT2=
EXTT3=
EXTT4=
EXTT5=
EXTT6=
EXTT7=
EXTT8=
PLAYORDER=
